<?xml version="1.0" encoding="utf-8"?>
<!-- Generator: Adobe Illustrator 15.0.0, SVG Export Plug-In . SVG Version: 6.00 Build 0)  -->
<!DOCTYPE svg PUBLIC "-//W3C//DTD SVG 1.1//EN" "http://www.w3.org/Graphics/SVG/1.1/DTD/svg11.dtd">
<svg version="1.1" id="Layer_1" xmlns="http://www.w3.org/2000/svg" xmlns:xlink="http://www.w3.org/1999/xlink" x="0px" y="0px"
	 width="433.8px" height="469.8px" viewBox="0 0 433.8 469.8" style="enable-background:new 0 0 433.8 469.8;" xml:space="preserve"
	>
<g id="XMLID_1_">
	<g>
		<path d="M433.6,0.2c0,156.4,0,312.9,0,469.3c-144.4,0-288.8,0-433.2,0c0-152.8,0-305.6,0-458.4C0.1,6-0.2,0.9,4,0.2
			C147.2,0.2,290.4,0.2,433.6,0.2z M397.5,433.4c0-132.4,0-264.7,0-397.1c-119.1,0-238.3,0-357.4,0c-8.4,125.1-1.2,265.9-3.6,397.1
			C156.8,433.4,277.2,433.4,397.5,433.4z"/>
		<path d="M361.4,108.5c-96.3,0-192.5,0-288.8,0C73,86.1,87,77.2,105.1,72.4c41.3,0,96.1,0,148,0C298.6,72.4,357.8,60.1,361.4,108.5
			z"/>
		<path d="M318.1,231.3c13.6,13.6,32.1,23.9,39.7,43.3c-29.2,26.2-56.8,53.8-83,83c-16.5-7.5-28.6-19.6-36.1-36.1
			c18.3-15.3,35.2-32.2,50.5-50.5c-15.3-18.4-32.2-35.2-50.5-50.5c4-17.7,21.9-21.4,28.9-36.1c5.8-1,6.2,3.4,10.8,3.6
			C291.5,202.5,304.2,217.4,318.1,231.3z"/>
		<path d="M159.2,184.4c16.5,7.5,28.6,19.6,36.1,36.1c-19,13.5-31.6,33.4-50.5,46.9c11.8,23.1,32.8,37,50.5,54.1
			c-7.5,16.5-19.6,28.6-36.1,36.1c-26.2-29.2-53.8-56.8-83-83c7.6-21.3,29.1-28.6,39.7-46.9C131.9,214.7,146.3,200.3,159.2,184.4z"
			/>
	</g>
	<g>
	</g>
</g>
</svg>
