<?xml version="1.0" encoding="utf-8"?>
<!-- Generator: Adobe Illustrator 15.0.0, SVG Export Plug-In . SVG Version: 6.00 Build 0)  -->
<!DOCTYPE svg PUBLIC "-//W3C//DTD SVG 1.1//EN" "http://www.w3.org/Graphics/SVG/1.1/DTD/svg11.dtd">
<svg version="1.1" id="Layer_1" xmlns="http://www.w3.org/2000/svg" xmlns:xlink="http://www.w3.org/1999/xlink" x="0px" y="0px"
	 width="72px" height="78px" viewBox="0 0 72 78" style="enable-background:new 0 0 72 78;" xml:space="preserve">
<g>
	<path d="M0,72"/>
	<polygon points="42,24 36,27 30,24 24,36 48,36 	"/>
	<polygon points="18,42 54,42 48,39 24,39 	"/>
	<path d="M54,12H18c-1.8,0-3.1,0.5-4.1,1.5s-1.6,2-1.7,3L12,18h48c0-0.2,0-0.4,0-0.7s-0.2-0.7-0.4-1.4c-0.2-0.7-0.5-1.3-0.9-1.8
		c-0.4-0.5-1-1-1.8-1.5S55.1,12,54,12z"/>
	<polygon points="60,51 45,48 48,54 42,66 57,66 	"/>
	<polygon points="39,54 42,48 30,48 33,54 30,66 42,66 	"/>
	<path d="M0,0v78h72V0H0z M66,72H6V6h60V72z"/>
	<polygon points="30,66 24,54 27,48 12,51 15,66 	"/>
	<path d="M72,72"/>
</g>
</svg>
