<?xml version="1.0" encoding="utf-8"?>
<!-- Generator: Adobe Illustrator 15.0.0, SVG Export Plug-In . SVG Version: 6.00 Build 0)  -->
<!DOCTYPE svg PUBLIC "-//W3C//DTD SVG 1.1//EN" "http://www.w3.org/Graphics/SVG/1.1/DTD/svg11.dtd">
<svg version="1.1" id="Layer_1" xmlns="http://www.w3.org/2000/svg" xmlns:xlink="http://www.w3.org/1999/xlink" x="0px" y="0px"
	 width="96.1px" height="93.9px" viewBox="0 0 96.1 93.9" style="enable-background:new 0 0 96.1 93.9;" xml:space="preserve">
<g>
	<path d="M0,78"/>
	<path d="M48,0C34.7,0,23.4,4.7,14.1,14.1C4.7,23.4,0,34.7,0,48c0,10.4,3.1,19.8,9.2,28.2c6.1,8.3,14,14.1,23.6,17.4
		c1.1,0.2,2,0,2.5-0.5s0.8-1.1,0.8-1.9c0-3.3,0-6.3-0.1-8.9c-2.6,0.5-4.9,0.7-6.8,0.5c-1.9-0.2-3.5-0.6-4.6-1.2
		c-1.2-0.7-2.1-1.4-2.8-2.1s-1.2-1.4-1.5-2l-0.4-0.8c-0.7-1.6-1.4-3-2.3-4.2c-0.9-1.2-1.6-2-2.2-2.3l-0.8-0.5
		c-1.3-0.9-1.9-1.6-1.9-2.1c0.1-0.4,0.5-0.7,1.2-0.8l1-0.1c1.4,0.1,2.8,0.6,4,1.4c1.2,0.8,2.1,1.6,2.6,2.3l0.8,1.2
		c1.4,2.2,3,3.8,5,4.5c2,0.8,3.7,1,5.1,0.8s2.6-0.7,3.9-1.2c0.4-2.9,1.5-5.1,3.1-6.4c-2.4-0.2-4.5-0.6-6.4-1.1S29,66.9,27,65.8
		c-2-1.1-3.7-2.5-5-4.2c-1.3-1.7-2.4-3.8-3.3-6.6c-0.8-2.7-1.3-5.9-1.3-9.4c0-5.1,1.7-9.3,5-12.8c-1.5-3.9-1.3-8.1,0.5-12.8
		c0.1-0.1,0.3-0.1,0.5-0.1c0.2,0,0.7,0,1.5,0.1c0.8,0.1,1.6,0.3,2.6,0.6c0.9,0.3,2.2,0.8,3.8,1.5c1.6,0.8,3.2,1.7,4.9,2.9
		c3.9-1.1,7.9-1.6,12-1.6c4.1,0,8.1,0.5,12,1.6c2.8-1.8,5.2-3.1,7.4-4c2.2-0.8,3.7-1.3,4.5-1.2l1.3,0.2c1.8,4.6,2,8.9,0.5,12.8
		c3.3,3.6,5,7.9,5,12.8c0,3.6-0.4,6.7-1.3,9.4c-0.9,2.7-2,4.9-3.3,6.6c-1.3,1.7-3,3-5,4.2s-4,1.9-5.9,2.4s-4,0.9-6.4,1.1
		c2.2,1.9,3.3,4.9,3.3,8.9c0,2.5,0,5.3,0,8.4c0,3.1,0,4.7,0,4.8c0,0.8,0.3,1.4,0.8,1.9s1.4,0.7,2.5,0.5c9.6-3.2,17.5-9,23.6-17.4
		c6.1-8.3,9.2-17.7,9.2-28.2c0-13.2-4.7-24.6-14.1-33.9C72.7,5,61.3,0.3,48.1,0.3L48,0z"/>
	<path d="M96,78"/>
</g>
</svg>
