<?xml version="1.0" encoding="utf-8"?>
<!-- Generator: Adobe Illustrator 15.0.0, SVG Export Plug-In . SVG Version: 6.00 Build 0)  -->
<!DOCTYPE svg PUBLIC "-//W3C//DTD SVG 1.1//EN" "http://www.w3.org/Graphics/SVG/1.1/DTD/svg11.dtd">
<svg version="1.1" id="Layer_1" xmlns="http://www.w3.org/2000/svg" xmlns:xlink="http://www.w3.org/1999/xlink" x="0px" y="0px"
	 width="72px" height="78px" viewBox="0 0 72 78" style="enable-background:new 0 0 72 78;" xml:space="preserve">
<path d="M0,72"/>
<path d="M47.9,40.7c-0.1-0.5-0.3-1.5-0.7-2.9c-0.4-1.4-1-2.6-1.7-3.7c-0.8-1-2-2-3.6-2.9S38.2,30,36,30c-1.6,0-3.1,0.2-4.4,0.7
	c-1.3,0.4-2.4,1-3.2,1.7c-0.8,0.7-1.5,1.5-2.2,2.3c-0.6,0.8-1.1,1.7-1.3,2.5c-0.2,0.8-0.5,1.6-0.6,2.3c-0.2,0.7-0.3,1.3-0.3,1.7V42
	v18h24V42C48,41.7,48,41.3,47.9,40.7z M30,42c0-0.2,0-0.4,0-0.7s0.2-0.7,0.4-1.4c0.2-0.7,0.5-1.3,0.9-1.8c0.4-0.5,1-1,1.8-1.5
	c0.8-0.4,1.8-0.7,2.9-0.7c1.8,0,3.1,0.5,4.1,1.5s1.6,2,1.7,3L42,42H30z"/>
<path d="M0,0v78h72V0H0z M66,72H6V6h60V72z"/>
<path d="M54,12H18c-1.8,0-3.1,0.5-4.1,1.5s-1.6,2-1.7,3L12,18h48c0-0.2,0-0.4,0-0.7s-0.2-0.7-0.4-1.4c-0.2-0.7-0.5-1.3-0.9-1.8
	c-0.4-0.5-1-1-1.8-1.5S55.1,12,54,12z"/>
<path d="M72,72"/>
</svg>
